<mxfile host="65bd71144e">
    <diagram id="Z7YqhpTuu6kp_KT7UC4V" name="Page-1">
        <mxGraphModel dx="646" dy="603" grid="1" gridSize="10" guides="1" tooltips="1" connect="1" arrows="1" fold="1" page="1" pageScale="1" pageWidth="850" pageHeight="1100" math="0" shadow="0">
            <root>
                <mxCell id="0"/>
                <mxCell id="1" parent="0"/>
                <mxCell id="We44I80bfApXYCCEXcoO-97" value="" style="rounded=0;whiteSpace=wrap;html=1;dashed=1;dashPattern=1 2;fontSize=12;strokeColor=#6c8ebf;fillColor=#dae8fc;" parent="1" vertex="1">
                    <mxGeometry x="140" y="170" width="360" height="1750" as="geometry"/>
                </mxCell>
                <mxCell id="We44I80bfApXYCCEXcoO-68" value="" style="rounded=0;whiteSpace=wrap;html=1;fontSize=14;fillColor=#fff2cc;strokeColor=none;" parent="1" vertex="1">
                    <mxGeometry x="160" y="1000" width="320" height="400" as="geometry"/>
                </mxCell>
                <mxCell id="We44I80bfApXYCCEXcoO-22" value="" style="rounded=0;whiteSpace=wrap;html=1;fontSize=14;fillColor=#fff2cc;strokeColor=none;" parent="1" vertex="1">
                    <mxGeometry x="160" y="320" width="320" height="240" as="geometry"/>
                </mxCell>
                <mxCell id="We44I80bfApXYCCEXcoO-2" value="&lt;font style=&quot;font-size: 16px&quot;&gt;Client &lt;br&gt;(sparc-dft-api)&lt;/font&gt;&lt;br&gt;sends atomic positions &amp;amp; cell parameters" style="text;html=1;strokeColor=#b85450;fillColor=#f8cecc;align=center;verticalAlign=middle;whiteSpace=wrap;rounded=0;" parent="1" vertex="1">
                    <mxGeometry x="80" y="40" width="160" height="80" as="geometry"/>
                </mxCell>
                <mxCell id="We44I80bfApXYCCEXcoO-4" value="&lt;font style=&quot;font-size: 16px&quot;&gt;Server&lt;br&gt;Sparc C codes + socket&lt;br&gt;&lt;/font&gt;computes energy, forces, and virial" style="text;html=1;strokeColor=#b85450;fillColor=#f8cecc;align=center;verticalAlign=middle;whiteSpace=wrap;rounded=0;" parent="1" vertex="1">
                    <mxGeometry x="380" y="40" width="200" height="80" as="geometry"/>
                </mxCell>
                <mxCell id="We44I80bfApXYCCEXcoO-7" value="" style="endArrow=classic;dashed=1;html=1;rounded=0;fontSize=14;startArrow=classic;startFill=1;endFill=1;" parent="1" edge="1">
                    <mxGeometry width="50" height="50" relative="1" as="geometry">
                        <mxPoint x="160" y="150" as="sourcePoint"/>
                        <mxPoint x="480" y="150" as="targetPoint"/>
                    </mxGeometry>
                </mxCell>
                <mxCell id="We44I80bfApXYCCEXcoO-50" value="&lt;font style=&quot;font-size: 14px&quot;&gt;Establish communication&lt;/font&gt;" style="edgeLabel;html=1;align=center;verticalAlign=middle;resizable=0;points=[];fontSize=12;" parent="We44I80bfApXYCCEXcoO-7" vertex="1" connectable="0">
                    <mxGeometry x="0.1813" y="-2" relative="1" as="geometry">
                        <mxPoint x="-29" y="-11" as="offset"/>
                    </mxGeometry>
                </mxCell>
                <mxCell id="We44I80bfApXYCCEXcoO-8" value="&lt;div&gt;* i-Pi docs list client and server in reverse to this&lt;/div&gt;&lt;div&gt;&lt;br&gt;&lt;/div&gt;&lt;div&gt;&lt;b&gt;BOLD &lt;/b&gt;words are headers sent to coordinate communications&lt;br&gt;&lt;/div&gt;" style="rounded=1;whiteSpace=wrap;html=1;fontSize=14;fillColor=#dae8fc;strokeColor=#6c8ebf;" parent="1" vertex="1">
                    <mxGeometry x="550" y="130" width="220" height="110" as="geometry"/>
                </mxCell>
                <mxCell id="We44I80bfApXYCCEXcoO-26" value="&lt;font style=&quot;font-size: 16px&quot;&gt;Client &lt;br&gt;(sparc-dft-api)&lt;/font&gt;&lt;br&gt;sends atomic positions &amp;amp; cell parameters" style="text;html=1;strokeColor=#b85450;fillColor=#f8cecc;align=center;verticalAlign=middle;whiteSpace=wrap;rounded=0;" parent="1" vertex="1">
                    <mxGeometry x="80" y="2100" width="160" height="80" as="geometry"/>
                </mxCell>
                <mxCell id="We44I80bfApXYCCEXcoO-27" value="&lt;font style=&quot;font-size: 16px&quot;&gt;Server&lt;br&gt;Sparc C codes + socket&lt;br&gt;&lt;/font&gt;computes energy, forces, and virial" style="text;html=1;strokeColor=#b85450;fillColor=#f8cecc;align=center;verticalAlign=middle;whiteSpace=wrap;rounded=0;" parent="1" vertex="1">
                    <mxGeometry x="380" y="2100" width="200" height="80" as="geometry"/>
                </mxCell>
                <mxCell id="We44I80bfApXYCCEXcoO-32" value="" style="endArrow=classic;html=1;rounded=0;fontSize=14;" parent="1" edge="1">
                    <mxGeometry width="50" height="50" relative="1" as="geometry">
                        <mxPoint x="160" y="240" as="sourcePoint"/>
                        <mxPoint x="480" y="240" as="targetPoint"/>
                    </mxGeometry>
                </mxCell>
                <mxCell id="We44I80bfApXYCCEXcoO-36" value="&lt;b&gt;STATUS&lt;/b&gt;" style="edgeLabel;html=1;align=center;verticalAlign=middle;resizable=0;points=[];fontSize=12;" parent="We44I80bfApXYCCEXcoO-32" vertex="1" connectable="0">
                    <mxGeometry x="0.3125" y="1" relative="1" as="geometry">
                        <mxPoint x="-55" y="-9" as="offset"/>
                    </mxGeometry>
                </mxCell>
                <mxCell id="We44I80bfApXYCCEXcoO-33" value="Interaction 1" style="text;html=1;strokeColor=default;fillColor=none;align=center;verticalAlign=middle;whiteSpace=wrap;rounded=0;fontSize=14;dashed=1;dashPattern=1 2;" parent="1" vertex="1">
                    <mxGeometry x="160" y="320" width="100" height="20" as="geometry"/>
                </mxCell>
                <mxCell id="We44I80bfApXYCCEXcoO-34" value="" style="endArrow=classic;html=1;rounded=0;fontSize=12;" parent="1" edge="1">
                    <mxGeometry width="50" height="50" relative="1" as="geometry">
                        <mxPoint x="480" y="370" as="sourcePoint"/>
                        <mxPoint x="160" y="370" as="targetPoint"/>
                    </mxGeometry>
                </mxCell>
                <mxCell id="We44I80bfApXYCCEXcoO-35" value="&lt;b&gt;NEEDINIT&lt;/b&gt;" style="edgeLabel;html=1;align=center;verticalAlign=middle;resizable=0;points=[];fontSize=12;" parent="We44I80bfApXYCCEXcoO-34" vertex="1" connectable="0">
                    <mxGeometry x="0.1125" y="-4" relative="1" as="geometry">
                        <mxPoint x="13" y="-6" as="offset"/>
                    </mxGeometry>
                </mxCell>
                <mxCell id="We44I80bfApXYCCEXcoO-38" value="" style="endArrow=classic;html=1;rounded=0;fontSize=12;" parent="1" edge="1">
                    <mxGeometry width="50" height="50" relative="1" as="geometry">
                        <mxPoint x="160" y="410" as="sourcePoint"/>
                        <mxPoint x="480" y="410" as="targetPoint"/>
                    </mxGeometry>
                </mxCell>
                <mxCell id="We44I80bfApXYCCEXcoO-39" value="&lt;b&gt;INIT&lt;/b&gt;" style="edgeLabel;html=1;align=center;verticalAlign=middle;resizable=0;points=[];fontSize=12;" parent="We44I80bfApXYCCEXcoO-38" vertex="1" connectable="0">
                    <mxGeometry x="0.2438" y="1" relative="1" as="geometry">
                        <mxPoint x="-44" y="-9" as="offset"/>
                    </mxGeometry>
                </mxCell>
                <mxCell id="We44I80bfApXYCCEXcoO-40" value="" style="endArrow=classic;html=1;rounded=0;fontSize=12;" parent="1" edge="1">
                    <mxGeometry width="50" height="50" relative="1" as="geometry">
                        <mxPoint x="160" y="450" as="sourcePoint"/>
                        <mxPoint x="480" y="450" as="targetPoint"/>
                    </mxGeometry>
                </mxCell>
                <mxCell id="We44I80bfApXYCCEXcoO-41" value="1 Int32 for bead index" style="edgeLabel;html=1;align=center;verticalAlign=middle;resizable=0;points=[];fontSize=12;" parent="We44I80bfApXYCCEXcoO-40" vertex="1" connectable="0">
                    <mxGeometry x="0.5688" y="1" relative="1" as="geometry">
                        <mxPoint x="-96" y="-9" as="offset"/>
                    </mxGeometry>
                </mxCell>
                <mxCell id="We44I80bfApXYCCEXcoO-42" value="" style="endArrow=classic;html=1;rounded=0;fontSize=12;" parent="1" edge="1">
                    <mxGeometry width="50" height="50" relative="1" as="geometry">
                        <mxPoint x="160" y="490" as="sourcePoint"/>
                        <mxPoint x="480" y="490" as="targetPoint"/>
                    </mxGeometry>
                </mxCell>
                <mxCell id="We44I80bfApXYCCEXcoO-43" value="1 Int32 for # bits for initialization string" style="edgeLabel;html=1;align=center;verticalAlign=middle;resizable=0;points=[];fontSize=12;" parent="We44I80bfApXYCCEXcoO-42" vertex="1" connectable="0">
                    <mxGeometry x="-0.325" y="-1" relative="1" as="geometry">
                        <mxPoint x="47" y="-11" as="offset"/>
                    </mxGeometry>
                </mxCell>
                <mxCell id="We44I80bfApXYCCEXcoO-44" value="" style="endArrow=classic;html=1;rounded=0;fontSize=12;" parent="1" edge="1">
                    <mxGeometry width="50" height="50" relative="1" as="geometry">
                        <mxPoint x="160" y="530" as="sourcePoint"/>
                        <mxPoint x="480" y="530" as="targetPoint"/>
                    </mxGeometry>
                </mxCell>
                <mxCell id="We44I80bfApXYCCEXcoO-45" value="Initialization string" style="edgeLabel;html=1;align=center;verticalAlign=middle;resizable=0;points=[];fontSize=12;" parent="We44I80bfApXYCCEXcoO-44" vertex="1" connectable="0">
                    <mxGeometry x="-0.325" y="-1" relative="1" as="geometry">
                        <mxPoint x="47" y="-11" as="offset"/>
                    </mxGeometry>
                </mxCell>
                <mxCell id="We44I80bfApXYCCEXcoO-48" value="" style="endArrow=classic;html=1;rounded=0;fontSize=14;" parent="1" edge="1">
                    <mxGeometry width="50" height="50" relative="1" as="geometry">
                        <mxPoint x="160" y="600" as="sourcePoint"/>
                        <mxPoint x="480" y="600" as="targetPoint"/>
                    </mxGeometry>
                </mxCell>
                <mxCell id="We44I80bfApXYCCEXcoO-49" value="&lt;b&gt;STATUS&lt;/b&gt;" style="edgeLabel;html=1;align=center;verticalAlign=middle;resizable=0;points=[];fontSize=12;" parent="We44I80bfApXYCCEXcoO-48" vertex="1" connectable="0">
                    <mxGeometry x="0.3125" y="1" relative="1" as="geometry">
                        <mxPoint x="-55" y="-9" as="offset"/>
                    </mxGeometry>
                </mxCell>
                <mxCell id="We44I80bfApXYCCEXcoO-51" value="" style="rounded=0;whiteSpace=wrap;html=1;fontSize=14;fillColor=#fff2cc;strokeColor=none;" parent="1" vertex="1">
                    <mxGeometry x="160" y="640" width="320" height="280" as="geometry"/>
                </mxCell>
                <mxCell id="We44I80bfApXYCCEXcoO-52" value="Interaction 2" style="text;html=1;strokeColor=default;fillColor=none;align=center;verticalAlign=middle;whiteSpace=wrap;rounded=0;fontSize=14;dashed=1;dashPattern=1 2;" parent="1" vertex="1">
                    <mxGeometry x="160" y="640" width="100" height="20" as="geometry"/>
                </mxCell>
                <mxCell id="We44I80bfApXYCCEXcoO-53" value="" style="endArrow=classic;html=1;rounded=0;fontSize=12;" parent="1" edge="1">
                    <mxGeometry width="50" height="50" relative="1" as="geometry">
                        <mxPoint x="480" y="680" as="sourcePoint"/>
                        <mxPoint x="160" y="680" as="targetPoint"/>
                    </mxGeometry>
                </mxCell>
                <mxCell id="We44I80bfApXYCCEXcoO-54" value="&lt;b&gt;READY&lt;/b&gt;" style="edgeLabel;html=1;align=center;verticalAlign=middle;resizable=0;points=[];fontSize=12;" parent="We44I80bfApXYCCEXcoO-53" vertex="1" connectable="0">
                    <mxGeometry x="0.1125" y="-4" relative="1" as="geometry">
                        <mxPoint x="13" y="-6" as="offset"/>
                    </mxGeometry>
                </mxCell>
                <mxCell id="We44I80bfApXYCCEXcoO-55" value="" style="endArrow=classic;html=1;rounded=0;fontSize=12;" parent="1" edge="1">
                    <mxGeometry width="50" height="50" relative="1" as="geometry">
                        <mxPoint x="160" y="720" as="sourcePoint"/>
                        <mxPoint x="480" y="720" as="targetPoint"/>
                    </mxGeometry>
                </mxCell>
                <mxCell id="We44I80bfApXYCCEXcoO-56" value="&lt;b&gt;POSDATA&lt;/b&gt;" style="edgeLabel;html=1;align=center;verticalAlign=middle;resizable=0;points=[];fontSize=12;" parent="We44I80bfApXYCCEXcoO-55" vertex="1" connectable="0">
                    <mxGeometry x="0.2438" y="1" relative="1" as="geometry">
                        <mxPoint x="-44" y="-9" as="offset"/>
                    </mxGeometry>
                </mxCell>
                <mxCell id="We44I80bfApXYCCEXcoO-57" value="" style="endArrow=classic;html=1;rounded=0;fontSize=12;strokeWidth=1;" parent="1" edge="1">
                    <mxGeometry width="50" height="50" relative="1" as="geometry">
                        <mxPoint x="160" y="759.5" as="sourcePoint"/>
                        <mxPoint x="480" y="759.5" as="targetPoint"/>
                    </mxGeometry>
                </mxCell>
                <mxCell id="We44I80bfApXYCCEXcoO-58" value="9 Float64s for cell vector matrix" style="edgeLabel;html=1;align=center;verticalAlign=middle;resizable=0;points=[];fontSize=12;" parent="We44I80bfApXYCCEXcoO-57" vertex="1" connectable="0">
                    <mxGeometry x="0.5688" y="1" relative="1" as="geometry">
                        <mxPoint x="-96" y="-9" as="offset"/>
                    </mxGeometry>
                </mxCell>
                <mxCell id="We44I80bfApXYCCEXcoO-29" style="edgeStyle=orthogonalEdgeStyle;rounded=0;orthogonalLoop=1;jettySize=auto;html=1;fontSize=14;startArrow=none;startFill=0;endArrow=classic;endFill=1;" parent="1" source="We44I80bfApXYCCEXcoO-4" target="We44I80bfApXYCCEXcoO-27" edge="1">
                    <mxGeometry relative="1" as="geometry"/>
                </mxCell>
                <mxCell id="We44I80bfApXYCCEXcoO-47" value="Decide current state of server and what info is needed " style="rounded=0;whiteSpace=wrap;html=1;dashed=1;dashPattern=1 2;fontSize=12;" parent="1" vertex="1">
                    <mxGeometry x="400" y="260" width="160" height="40" as="geometry"/>
                </mxCell>
                <mxCell id="We44I80bfApXYCCEXcoO-59" value="" style="endArrow=classic;html=1;rounded=0;fontSize=12;strokeWidth=1;" parent="1" edge="1">
                    <mxGeometry width="50" height="50" relative="1" as="geometry">
                        <mxPoint x="160" y="800" as="sourcePoint"/>
                        <mxPoint x="480" y="800" as="targetPoint"/>
                    </mxGeometry>
                </mxCell>
                <mxCell id="We44I80bfApXYCCEXcoO-60" value="9 Float64s for inverse matrix" style="edgeLabel;html=1;align=center;verticalAlign=middle;resizable=0;points=[];fontSize=12;" parent="We44I80bfApXYCCEXcoO-59" vertex="1" connectable="0">
                    <mxGeometry x="0.5688" y="1" relative="1" as="geometry">
                        <mxPoint x="-96" y="-9" as="offset"/>
                    </mxGeometry>
                </mxCell>
                <mxCell id="We44I80bfApXYCCEXcoO-61" value="" style="endArrow=classic;html=1;rounded=0;fontSize=12;strokeWidth=1;" parent="1" edge="1">
                    <mxGeometry width="50" height="50" relative="1" as="geometry">
                        <mxPoint x="160" y="840" as="sourcePoint"/>
                        <mxPoint x="480" y="840" as="targetPoint"/>
                    </mxGeometry>
                </mxCell>
                <mxCell id="We44I80bfApXYCCEXcoO-62" value="1 Int32 for # of atoms" style="edgeLabel;html=1;align=center;verticalAlign=middle;resizable=0;points=[];fontSize=12;" parent="We44I80bfApXYCCEXcoO-61" vertex="1" connectable="0">
                    <mxGeometry x="0.5688" y="1" relative="1" as="geometry">
                        <mxPoint x="-96" y="-9" as="offset"/>
                    </mxGeometry>
                </mxCell>
                <mxCell id="We44I80bfApXYCCEXcoO-63" value="" style="endArrow=classic;html=1;rounded=0;fontSize=12;strokeWidth=1;" parent="1" edge="1">
                    <mxGeometry width="50" height="50" relative="1" as="geometry">
                        <mxPoint x="160" y="880" as="sourcePoint"/>
                        <mxPoint x="480" y="880" as="targetPoint"/>
                    </mxGeometry>
                </mxCell>
                <mxCell id="We44I80bfApXYCCEXcoO-64" value="3 Float64s for cartesian coords for each atom" style="edgeLabel;html=1;align=center;verticalAlign=middle;resizable=0;points=[];fontSize=12;" parent="We44I80bfApXYCCEXcoO-63" vertex="1" connectable="0">
                    <mxGeometry x="0.5688" y="1" relative="1" as="geometry">
                        <mxPoint x="-96" y="-9" as="offset"/>
                    </mxGeometry>
                </mxCell>
                <mxCell id="We44I80bfApXYCCEXcoO-65" value="How to indicate types of atoms?" style="rounded=1;whiteSpace=wrap;html=1;fontSize=14;fillColor=#dae8fc;strokeColor=#6c8ebf;" parent="1" vertex="1">
                    <mxGeometry x="520" y="870" width="220" height="20" as="geometry"/>
                </mxCell>
                <mxCell id="We44I80bfApXYCCEXcoO-66" value="" style="endArrow=classic;html=1;rounded=0;fontSize=14;" parent="1" edge="1">
                    <mxGeometry width="50" height="50" relative="1" as="geometry">
                        <mxPoint x="160" y="960" as="sourcePoint"/>
                        <mxPoint x="480" y="960" as="targetPoint"/>
                    </mxGeometry>
                </mxCell>
                <mxCell id="We44I80bfApXYCCEXcoO-67" value="&lt;b&gt;STATUS&lt;/b&gt;" style="edgeLabel;html=1;align=center;verticalAlign=middle;resizable=0;points=[];fontSize=12;" parent="We44I80bfApXYCCEXcoO-66" vertex="1" connectable="0">
                    <mxGeometry x="0.3125" y="1" relative="1" as="geometry">
                        <mxPoint x="-55" y="-9" as="offset"/>
                    </mxGeometry>
                </mxCell>
                <mxCell id="We44I80bfApXYCCEXcoO-69" value="Interaction 3" style="text;html=1;strokeColor=default;fillColor=none;align=center;verticalAlign=middle;whiteSpace=wrap;rounded=0;fontSize=14;dashed=1;dashPattern=1 2;" parent="1" vertex="1">
                    <mxGeometry x="160" y="1000" width="100" height="20" as="geometry"/>
                </mxCell>
                <mxCell id="We44I80bfApXYCCEXcoO-70" value="" style="endArrow=classic;html=1;rounded=0;fontSize=12;" parent="1" edge="1">
                    <mxGeometry width="50" height="50" relative="1" as="geometry">
                        <mxPoint x="480" y="1040" as="sourcePoint"/>
                        <mxPoint x="160" y="1040" as="targetPoint"/>
                    </mxGeometry>
                </mxCell>
                <mxCell id="We44I80bfApXYCCEXcoO-71" value="&lt;b&gt;HAVEDATA&lt;/b&gt;" style="edgeLabel;html=1;align=center;verticalAlign=middle;resizable=0;points=[];fontSize=12;" parent="We44I80bfApXYCCEXcoO-70" vertex="1" connectable="0">
                    <mxGeometry x="0.1125" y="-4" relative="1" as="geometry">
                        <mxPoint x="13" y="-6" as="offset"/>
                    </mxGeometry>
                </mxCell>
                <mxCell id="We44I80bfApXYCCEXcoO-72" value="" style="endArrow=classic;html=1;rounded=0;fontSize=12;" parent="1" edge="1">
                    <mxGeometry width="50" height="50" relative="1" as="geometry">
                        <mxPoint x="160" y="1080" as="sourcePoint"/>
                        <mxPoint x="480" y="1080" as="targetPoint"/>
                    </mxGeometry>
                </mxCell>
                <mxCell id="We44I80bfApXYCCEXcoO-73" value="&lt;b&gt;GETFORCE&lt;/b&gt;" style="edgeLabel;html=1;align=center;verticalAlign=middle;resizable=0;points=[];fontSize=12;" parent="We44I80bfApXYCCEXcoO-72" vertex="1" connectable="0">
                    <mxGeometry x="0.2438" y="1" relative="1" as="geometry">
                        <mxPoint x="-44" y="-9" as="offset"/>
                    </mxGeometry>
                </mxCell>
                <mxCell id="We44I80bfApXYCCEXcoO-76" value="" style="endArrow=none;html=1;rounded=0;fontSize=12;strokeWidth=1;startArrow=classic;startFill=1;endFill=0;" parent="1" edge="1">
                    <mxGeometry width="50" height="50" relative="1" as="geometry">
                        <mxPoint x="160" y="1160" as="sourcePoint"/>
                        <mxPoint x="480" y="1160" as="targetPoint"/>
                    </mxGeometry>
                </mxCell>
                <mxCell id="We44I80bfApXYCCEXcoO-77" value="1 float for potential" style="edgeLabel;html=1;align=center;verticalAlign=middle;resizable=0;points=[];fontSize=12;" parent="We44I80bfApXYCCEXcoO-76" vertex="1" connectable="0">
                    <mxGeometry x="0.5688" y="1" relative="1" as="geometry">
                        <mxPoint x="-96" y="-9" as="offset"/>
                    </mxGeometry>
                </mxCell>
                <mxCell id="We44I80bfApXYCCEXcoO-83" value="" style="endArrow=classic;html=1;rounded=0;fontSize=12;" parent="1" edge="1">
                    <mxGeometry width="50" height="50" relative="1" as="geometry">
                        <mxPoint x="480" y="1120" as="sourcePoint"/>
                        <mxPoint x="160" y="1120" as="targetPoint"/>
                    </mxGeometry>
                </mxCell>
                <mxCell id="We44I80bfApXYCCEXcoO-84" value="&lt;b&gt;FORCEREADY&lt;/b&gt;" style="edgeLabel;html=1;align=center;verticalAlign=middle;resizable=0;points=[];fontSize=12;" parent="We44I80bfApXYCCEXcoO-83" vertex="1" connectable="0">
                    <mxGeometry x="0.1125" y="-4" relative="1" as="geometry">
                        <mxPoint x="13" y="-6" as="offset"/>
                    </mxGeometry>
                </mxCell>
                <mxCell id="We44I80bfApXYCCEXcoO-85" value="" style="endArrow=none;html=1;rounded=0;fontSize=12;strokeWidth=1;startArrow=classic;startFill=1;endFill=0;" parent="1" edge="1">
                    <mxGeometry width="50" height="50" relative="1" as="geometry">
                        <mxPoint x="160" y="1200" as="sourcePoint"/>
                        <mxPoint x="480" y="1200" as="targetPoint"/>
                    </mxGeometry>
                </mxCell>
                <mxCell id="We44I80bfApXYCCEXcoO-86" value="1 integer for # atoms" style="edgeLabel;html=1;align=center;verticalAlign=middle;resizable=0;points=[];fontSize=12;" parent="We44I80bfApXYCCEXcoO-85" vertex="1" connectable="0">
                    <mxGeometry x="0.5688" y="1" relative="1" as="geometry">
                        <mxPoint x="-96" y="-9" as="offset"/>
                    </mxGeometry>
                </mxCell>
                <mxCell id="We44I80bfApXYCCEXcoO-87" value="" style="endArrow=none;html=1;rounded=0;fontSize=12;strokeWidth=1;startArrow=classic;startFill=1;endFill=0;" parent="1" edge="1">
                    <mxGeometry width="50" height="50" relative="1" as="geometry">
                        <mxPoint x="160" y="1240" as="sourcePoint"/>
                        <mxPoint x="480" y="1240" as="targetPoint"/>
                    </mxGeometry>
                </mxCell>
                <mxCell id="We44I80bfApXYCCEXcoO-88" value="3 floats for cartesian coords for each atom" style="edgeLabel;html=1;align=center;verticalAlign=middle;resizable=0;points=[];fontSize=12;" parent="We44I80bfApXYCCEXcoO-87" vertex="1" connectable="0">
                    <mxGeometry x="0.5688" y="1" relative="1" as="geometry">
                        <mxPoint x="-96" y="-9" as="offset"/>
                    </mxGeometry>
                </mxCell>
                <mxCell id="We44I80bfApXYCCEXcoO-89" value="" style="endArrow=none;html=1;rounded=0;fontSize=12;strokeWidth=1;startArrow=classic;startFill=1;endFill=0;" parent="1" edge="1">
                    <mxGeometry width="50" height="50" relative="1" as="geometry">
                        <mxPoint x="160" y="1280" as="sourcePoint"/>
                        <mxPoint x="480" y="1280" as="targetPoint"/>
                    </mxGeometry>
                </mxCell>
                <mxCell id="We44I80bfApXYCCEXcoO-90" value="9 floats for virial (cell vector matrix format)" style="edgeLabel;html=1;align=center;verticalAlign=middle;resizable=0;points=[];fontSize=12;" parent="We44I80bfApXYCCEXcoO-89" vertex="1" connectable="0">
                    <mxGeometry x="0.5688" y="1" relative="1" as="geometry">
                        <mxPoint x="-96" y="-9" as="offset"/>
                    </mxGeometry>
                </mxCell>
                <mxCell id="We44I80bfApXYCCEXcoO-91" value="" style="endArrow=none;html=1;rounded=0;fontSize=12;strokeWidth=1;startArrow=classic;startFill=1;endFill=0;" parent="1" edge="1">
                    <mxGeometry width="50" height="50" relative="1" as="geometry">
                        <mxPoint x="160" y="1320" as="sourcePoint"/>
                        <mxPoint x="480" y="1320" as="targetPoint"/>
                    </mxGeometry>
                </mxCell>
                <mxCell id="We44I80bfApXYCCEXcoO-92" value="[optional] # characters for optional JSON string" style="edgeLabel;html=1;align=center;verticalAlign=middle;resizable=0;points=[];fontSize=12;" parent="We44I80bfApXYCCEXcoO-91" vertex="1" connectable="0">
                    <mxGeometry x="0.5688" y="1" relative="1" as="geometry">
                        <mxPoint x="-96" y="-9" as="offset"/>
                    </mxGeometry>
                </mxCell>
                <mxCell id="We44I80bfApXYCCEXcoO-93" value="&lt;div&gt;Format is optional for our implementation&lt;/div&gt;&lt;div&gt;&lt;br&gt;&lt;/div&gt;&lt;div&gt;Only output if extra info is requested in setup&lt;br&gt;&lt;/div&gt;" style="rounded=1;whiteSpace=wrap;html=1;fontSize=14;fillColor=#dae8fc;strokeColor=#6c8ebf;" parent="1" vertex="1">
                    <mxGeometry x="520" y="1300" width="260" height="70" as="geometry"/>
                </mxCell>
                <mxCell id="We44I80bfApXYCCEXcoO-94" value="" style="endArrow=none;html=1;rounded=0;fontSize=12;strokeWidth=1;startArrow=classic;startFill=1;endFill=0;" parent="1" edge="1">
                    <mxGeometry width="50" height="50" relative="1" as="geometry">
                        <mxPoint x="160" y="1360" as="sourcePoint"/>
                        <mxPoint x="480" y="1360" as="targetPoint"/>
                    </mxGeometry>
                </mxCell>
                <mxCell id="We44I80bfApXYCCEXcoO-95" value="[optional] JSON string" style="edgeLabel;html=1;align=center;verticalAlign=middle;resizable=0;points=[];fontSize=12;" parent="We44I80bfApXYCCEXcoO-94" vertex="1" connectable="0">
                    <mxGeometry x="0.5688" y="1" relative="1" as="geometry">
                        <mxPoint x="-96" y="-9" as="offset"/>
                    </mxGeometry>
                </mxCell>
                <mxCell id="We44I80bfApXYCCEXcoO-100" value="In Loop" style="text;html=1;strokeColor=default;fillColor=none;align=center;verticalAlign=middle;whiteSpace=wrap;rounded=0;fontSize=14;dashed=1;dashPattern=1 2;" parent="1" vertex="1">
                    <mxGeometry x="270" y="175" width="100" height="20" as="geometry"/>
                </mxCell>
                <mxCell id="We44I80bfApXYCCEXcoO-101" value="" style="endArrow=classic;html=1;rounded=0;fontSize=12;strokeWidth=1;" parent="1" edge="1">
                    <mxGeometry width="50" height="50" relative="1" as="geometry">
                        <mxPoint x="160" y="2020" as="sourcePoint"/>
                        <mxPoint x="480" y="2020" as="targetPoint"/>
                    </mxGeometry>
                </mxCell>
                <mxCell id="We44I80bfApXYCCEXcoO-102" value="Abort &amp;amp; shutdown server" style="edgeLabel;html=1;align=center;verticalAlign=middle;resizable=0;points=[];fontSize=12;" parent="We44I80bfApXYCCEXcoO-101" vertex="1" connectable="0">
                    <mxGeometry x="0.2938" y="2" relative="1" as="geometry">
                        <mxPoint x="-47" y="-8" as="offset"/>
                    </mxGeometry>
                </mxCell>
                <mxCell id="We44I80bfApXYCCEXcoO-103" value="" style="rounded=0;whiteSpace=wrap;html=1;fontSize=14;fillColor=#fff2cc;strokeColor=none;" parent="1" vertex="1">
                    <mxGeometry x="160" y="1480" width="320" height="400" as="geometry"/>
                </mxCell>
                <mxCell id="We44I80bfApXYCCEXcoO-104" value="" style="endArrow=classic;html=1;rounded=0;fontSize=14;" parent="1" edge="1">
                    <mxGeometry width="50" height="50" relative="1" as="geometry">
                        <mxPoint x="160" y="1440" as="sourcePoint"/>
                        <mxPoint x="480" y="1440" as="targetPoint"/>
                    </mxGeometry>
                </mxCell>
                <mxCell id="We44I80bfApXYCCEXcoO-105" value="&lt;b&gt;STATUS&lt;/b&gt;" style="edgeLabel;html=1;align=center;verticalAlign=middle;resizable=0;points=[];fontSize=12;" parent="We44I80bfApXYCCEXcoO-104" vertex="1" connectable="0">
                    <mxGeometry x="0.3125" y="1" relative="1" as="geometry">
                        <mxPoint x="-55" y="-9" as="offset"/>
                    </mxGeometry>
                </mxCell>
                <mxCell id="We44I80bfApXYCCEXcoO-106" value="Interaction 4" style="text;html=1;strokeColor=default;fillColor=none;align=center;verticalAlign=middle;whiteSpace=wrap;rounded=0;fontSize=14;dashed=1;dashPattern=1 2;" parent="1" vertex="1">
                    <mxGeometry x="160" y="1480" width="100" height="20" as="geometry"/>
                </mxCell>
                <mxCell id="We44I80bfApXYCCEXcoO-107" value="" style="endArrow=classic;html=1;rounded=0;fontSize=12;" parent="1" edge="1">
                    <mxGeometry width="50" height="50" relative="1" as="geometry">
                        <mxPoint x="480" y="1520" as="sourcePoint"/>
                        <mxPoint x="160" y="1520" as="targetPoint"/>
                    </mxGeometry>
                </mxCell>
                <mxCell id="We44I80bfApXYCCEXcoO-108" value="&lt;b&gt;HAVEDATA&lt;/b&gt;" style="edgeLabel;html=1;align=center;verticalAlign=middle;resizable=0;points=[];fontSize=12;" parent="We44I80bfApXYCCEXcoO-107" vertex="1" connectable="0">
                    <mxGeometry x="0.1125" y="-4" relative="1" as="geometry">
                        <mxPoint x="13" y="-6" as="offset"/>
                    </mxGeometry>
                </mxCell>
                <mxCell id="We44I80bfApXYCCEXcoO-109" value="" style="endArrow=classic;html=1;rounded=0;fontSize=12;" parent="1" edge="1">
                    <mxGeometry width="50" height="50" relative="1" as="geometry">
                        <mxPoint x="160" y="1560" as="sourcePoint"/>
                        <mxPoint x="480" y="1560" as="targetPoint"/>
                    </mxGeometry>
                </mxCell>
                <mxCell id="We44I80bfApXYCCEXcoO-110" value="&lt;b&gt;GETSTRESS&lt;/b&gt;" style="edgeLabel;html=1;align=center;verticalAlign=middle;resizable=0;points=[];fontSize=12;" parent="We44I80bfApXYCCEXcoO-109" vertex="1" connectable="0">
                    <mxGeometry x="0.2438" y="1" relative="1" as="geometry">
                        <mxPoint x="-44" y="-9" as="offset"/>
                    </mxGeometry>
                </mxCell>
                <mxCell id="We44I80bfApXYCCEXcoO-111" value="" style="endArrow=none;html=1;rounded=0;fontSize=12;strokeWidth=1;startArrow=classic;startFill=1;endFill=0;" parent="1" edge="1">
                    <mxGeometry width="50" height="50" relative="1" as="geometry">
                        <mxPoint x="160" y="1640" as="sourcePoint"/>
                        <mxPoint x="480" y="1640" as="targetPoint"/>
                    </mxGeometry>
                </mxCell>
                <mxCell id="We44I80bfApXYCCEXcoO-112" value="1 float for potential" style="edgeLabel;html=1;align=center;verticalAlign=middle;resizable=0;points=[];fontSize=12;" parent="We44I80bfApXYCCEXcoO-111" vertex="1" connectable="0">
                    <mxGeometry x="0.5688" y="1" relative="1" as="geometry">
                        <mxPoint x="-96" y="-9" as="offset"/>
                    </mxGeometry>
                </mxCell>
                <mxCell id="We44I80bfApXYCCEXcoO-113" value="" style="endArrow=classic;html=1;rounded=0;fontSize=12;" parent="1" edge="1">
                    <mxGeometry width="50" height="50" relative="1" as="geometry">
                        <mxPoint x="480" y="1600" as="sourcePoint"/>
                        <mxPoint x="160" y="1600" as="targetPoint"/>
                    </mxGeometry>
                </mxCell>
                <mxCell id="We44I80bfApXYCCEXcoO-114" value="&lt;b&gt;STRESSREADY&lt;/b&gt;" style="edgeLabel;html=1;align=center;verticalAlign=middle;resizable=0;points=[];fontSize=12;" parent="We44I80bfApXYCCEXcoO-113" vertex="1" connectable="0">
                    <mxGeometry x="0.1125" y="-4" relative="1" as="geometry">
                        <mxPoint x="13" y="-6" as="offset"/>
                    </mxGeometry>
                </mxCell>
                <mxCell id="We44I80bfApXYCCEXcoO-115" value="" style="endArrow=none;html=1;rounded=0;fontSize=12;strokeWidth=1;startArrow=classic;startFill=1;endFill=0;" parent="1" edge="1">
                    <mxGeometry width="50" height="50" relative="1" as="geometry">
                        <mxPoint x="160" y="1680" as="sourcePoint"/>
                        <mxPoint x="480" y="1680" as="targetPoint"/>
                    </mxGeometry>
                </mxCell>
                <mxCell id="We44I80bfApXYCCEXcoO-116" value="1 integer for # atoms" style="edgeLabel;html=1;align=center;verticalAlign=middle;resizable=0;points=[];fontSize=12;" parent="We44I80bfApXYCCEXcoO-115" vertex="1" connectable="0">
                    <mxGeometry x="0.5688" y="1" relative="1" as="geometry">
                        <mxPoint x="-96" y="-9" as="offset"/>
                    </mxGeometry>
                </mxCell>
                <mxCell id="We44I80bfApXYCCEXcoO-117" value="" style="endArrow=none;html=1;rounded=0;fontSize=12;strokeWidth=1;startArrow=classic;startFill=1;endFill=0;" parent="1" edge="1">
                    <mxGeometry width="50" height="50" relative="1" as="geometry">
                        <mxPoint x="160" y="1720" as="sourcePoint"/>
                        <mxPoint x="480" y="1720" as="targetPoint"/>
                    </mxGeometry>
                </mxCell>
                <mxCell id="We44I80bfApXYCCEXcoO-118" value="3 floats for cartesian coords for each atom" style="edgeLabel;html=1;align=center;verticalAlign=middle;resizable=0;points=[];fontSize=12;" parent="We44I80bfApXYCCEXcoO-117" vertex="1" connectable="0">
                    <mxGeometry x="0.5688" y="1" relative="1" as="geometry">
                        <mxPoint x="-96" y="-9" as="offset"/>
                    </mxGeometry>
                </mxCell>
                <mxCell id="We44I80bfApXYCCEXcoO-119" value="" style="endArrow=none;html=1;rounded=0;fontSize=12;strokeWidth=1;startArrow=classic;startFill=1;endFill=0;" parent="1" edge="1">
                    <mxGeometry width="50" height="50" relative="1" as="geometry">
                        <mxPoint x="160" y="1760" as="sourcePoint"/>
                        <mxPoint x="480" y="1760" as="targetPoint"/>
                    </mxGeometry>
                </mxCell>
                <mxCell id="We44I80bfApXYCCEXcoO-120" value="9 floats for virial (cell vector matrix format)" style="edgeLabel;html=1;align=center;verticalAlign=middle;resizable=0;points=[];fontSize=12;" parent="We44I80bfApXYCCEXcoO-119" vertex="1" connectable="0">
                    <mxGeometry x="0.5688" y="1" relative="1" as="geometry">
                        <mxPoint x="-96" y="-9" as="offset"/>
                    </mxGeometry>
                </mxCell>
                <mxCell id="We44I80bfApXYCCEXcoO-121" value="" style="endArrow=none;html=1;rounded=0;fontSize=12;strokeWidth=1;startArrow=classic;startFill=1;endFill=0;" parent="1" edge="1">
                    <mxGeometry width="50" height="50" relative="1" as="geometry">
                        <mxPoint x="160" y="1800" as="sourcePoint"/>
                        <mxPoint x="480" y="1800" as="targetPoint"/>
                    </mxGeometry>
                </mxCell>
                <mxCell id="We44I80bfApXYCCEXcoO-122" value="[optional] # characters for optional JSON string" style="edgeLabel;html=1;align=center;verticalAlign=middle;resizable=0;points=[];fontSize=12;" parent="We44I80bfApXYCCEXcoO-121" vertex="1" connectable="0">
                    <mxGeometry x="0.5688" y="1" relative="1" as="geometry">
                        <mxPoint x="-96" y="-9" as="offset"/>
                    </mxGeometry>
                </mxCell>
                <mxCell id="We44I80bfApXYCCEXcoO-123" value="" style="endArrow=none;html=1;rounded=0;fontSize=12;strokeWidth=1;startArrow=classic;startFill=1;endFill=0;" parent="1" edge="1">
                    <mxGeometry width="50" height="50" relative="1" as="geometry">
                        <mxPoint x="160" y="1840" as="sourcePoint"/>
                        <mxPoint x="480" y="1840" as="targetPoint"/>
                    </mxGeometry>
                </mxCell>
                <mxCell id="We44I80bfApXYCCEXcoO-124" value="[optional] JSON string" style="edgeLabel;html=1;align=center;verticalAlign=middle;resizable=0;points=[];fontSize=12;" parent="We44I80bfApXYCCEXcoO-123" vertex="1" connectable="0">
                    <mxGeometry x="0.5688" y="1" relative="1" as="geometry">
                        <mxPoint x="-96" y="-9" as="offset"/>
                    </mxGeometry>
                </mxCell>
                <mxCell id="We44I80bfApXYCCEXcoO-125" value="Settings Initialization, probably only called once at beginning" style="rounded=1;whiteSpace=wrap;html=1;fontSize=14;fillColor=#dae8fc;strokeColor=#6c8ebf;" parent="1" vertex="1">
                    <mxGeometry x="520" y="350" width="230" height="40" as="geometry"/>
                </mxCell>
                <mxCell id="We44I80bfApXYCCEXcoO-28" style="edgeStyle=orthogonalEdgeStyle;rounded=0;orthogonalLoop=1;jettySize=auto;html=1;entryX=0.5;entryY=0;entryDx=0;entryDy=0;fontSize=14;startArrow=none;startFill=0;endArrow=classic;endFill=1;" parent="1" source="We44I80bfApXYCCEXcoO-2" target="We44I80bfApXYCCEXcoO-26" edge="1">
                    <mxGeometry relative="1" as="geometry"/>
                </mxCell>
                <mxCell id="We44I80bfApXYCCEXcoO-46" value="repeatedly polling server when ready to calc" style="rounded=0;whiteSpace=wrap;html=1;dashed=1;dashPattern=1 2;fontSize=12;" parent="1" vertex="1">
                    <mxGeometry x="90" y="180" width="140" height="40" as="geometry"/>
                </mxCell>
                <mxCell id="We44I80bfApXYCCEXcoO-96" value="&lt;div&gt;waits until it has received all of the data from each server, then runs its calcs&lt;br&gt;&lt;/div&gt;" style="rounded=0;whiteSpace=wrap;html=1;fontSize=12;shadow=0;perimeterSpacing=0;dashed=1;dashPattern=1 2;" parent="1" vertex="1">
                    <mxGeometry x="90" y="1940" width="140" height="60" as="geometry"/>
                </mxCell>
            </root>
        </mxGraphModel>
    </diagram>
</mxfile>